<svg xmlns="http://www.w3.org/2000/svg" width="1380" height="820" viewBox="0 0 1380 820">
<rect width="1380" height="820" fill="#FFFFFF"/>
<text x="60.0" y="70.0" font-family="system-ui,-apple-system,'Segoe UI',Roboto,Helvetica,Arial,sans-serif" font-size="33" font-weight="600" fill="#7E7972" text-anchor="start">une poussée, et ce qu'elle déplace</text>
<line x1="60.0" y1="84.0" x2="1360.0" y2="84.0" stroke="#D2CEC8" stroke-width="1.5" data-role="filet"/>
<line x1="300.0" y1="260.0" x2="900.0" y2="260.0" stroke="#14120F" stroke-width="2.4"/>
<text x="280.0" y="271.0" font-family="system-ui,-apple-system,'Segoe UI',Roboto,Helvetica,Arial,sans-serif" font-size="33" font-weight="600" fill="#14120F" text-anchor="end">w⁽³⁾</text>
<circle cx="400.0" cy="260.0" r="8.00" fill="#14120F"/>
<text x="400.0" y="318.0" font-family="system-ui,-apple-system,'Segoe UI',Roboto,Helvetica,Arial,sans-serif" font-size="33" font-weight="400" fill="#565049" text-anchor="middle">2,0</text>
<line x1="400.0" y1="208.0" x2="580.9" y2="208.0" stroke="#14120F" stroke-width="3.0" data-role="filet"/><polygon points="590.0,208.0 578.0,213.1 578.0,202.9" fill="#14120F" data-role="filet"/>
<circle cx="590.0" cy="260.0" r="8.00" fill="#14120F"/>
<text x="950.0" y="219.0" font-family="system-ui,-apple-system,'Segoe UI',Roboto,Helvetica,Arial,sans-serif" font-size="33" font-weight="600" fill="#14120F" text-anchor="start">h</text>
<line x1="300.0" y1="480.0" x2="900.0" y2="480.0" stroke="#14120F" stroke-width="2.4"/>
<text x="280.0" y="491.0" font-family="system-ui,-apple-system,'Segoe UI',Roboto,Helvetica,Arial,sans-serif" font-size="33" font-weight="600" fill="#14120F" text-anchor="end">z⁽³⁾</text>
<circle cx="400.0" cy="480.0" r="8.00" fill="#14120F"/>
<text x="400.0" y="538.0" font-family="system-ui,-apple-system,'Segoe UI',Roboto,Helvetica,Arial,sans-serif" font-size="33" font-weight="400" fill="#565049" text-anchor="middle">1,700000</text>
<line x1="400.0" y1="428.0" x2="599.9" y2="428.0" stroke="#14120F" stroke-width="3.0" data-role="filet"/><polygon points="609.0,428.0 597.0,433.1 597.0,422.9" fill="#14120F" data-role="filet"/>
<circle cx="609.0" cy="480.0" r="8.00" fill="#14120F"/>
<text x="950.0" y="439.0" font-family="system-ui,-apple-system,'Segoe UI',Roboto,Helvetica,Arial,sans-serif" font-size="33" font-weight="600" fill="#14120F" text-anchor="start">1,100000 × h</text>
<line x1="300.0" y1="700.0" x2="900.0" y2="700.0" stroke="#14120F" stroke-width="2.4"/>
<text x="280.0" y="711.0" font-family="system-ui,-apple-system,'Segoe UI',Roboto,Helvetica,Arial,sans-serif" font-size="33" font-weight="600" fill="#14120F" text-anchor="end">ℓ</text>
<circle cx="400.0" cy="700.0" r="8.00" fill="#14120F"/>
<text x="400.0" y="758.0" font-family="system-ui,-apple-system,'Segoe UI',Roboto,Helvetica,Arial,sans-serif" font-size="33" font-weight="400" fill="#565049" text-anchor="middle">0,167786</text>
<line x1="400.0" y1="648.0" x2="376.8" y2="648.0" stroke="#A8442A" stroke-width="3.0" data-role="filet"/><polygon points="367.7,648.0 379.7,642.9 379.7,653.1" fill="#A8442A" data-role="filet"/>
<circle cx="367.7" cy="700.0" r="8.00" fill="#A8442A"/>
<text x="950.0" y="659.0" font-family="system-ui,-apple-system,'Segoe UI',Roboto,Helvetica,Arial,sans-serif" font-size="33" font-weight="600" fill="#A8442A" text-anchor="start">−0,169912 × h</text>
</svg>
