<svg xmlns="http://www.w3.org/2000/svg" width="1380" height="470" viewBox="0 0 1380 470">
<rect width="1380" height="470" fill="#FFFFFF"/>
<text x="40.0" y="40.0" font-family="system-ui,-apple-system,'Segoe UI',Roboto,Helvetica,Arial,sans-serif" font-size="33" font-weight="600" fill="#7E7972" text-anchor="start">une image entre, un chiffre sort</text>
<line x1="40.0" y1="54.0" x2="1340.0" y2="54.0" stroke="#D2CEC8" stroke-width="1.5" data-role="filet"/>
<rect x="174.0" y="193.0" width="9.4" height="9.4" fill="#B2B1B0"/>
<rect x="183.0" y="193.0" width="9.4" height="9.4" fill="#555351"/>
<rect x="192.0" y="193.0" width="9.4" height="9.4" fill="#6C6B69"/>
<rect x="201.0" y="193.0" width="9.4" height="9.4" fill="#747371"/>
<rect x="210.0" y="193.0" width="9.4" height="9.4" fill="#C8C7C7"/>
<rect x="219.0" y="193.0" width="9.4" height="9.4" fill="#DEDEDD"/>
<rect x="174.0" y="202.0" width="9.4" height="9.4" fill="#32312E"/>
<rect x="183.0" y="202.0" width="9.4" height="9.4" fill="#151310"/>
<rect x="192.0" y="202.0" width="9.4" height="9.4" fill="#151310"/>
<rect x="201.0" y="202.0" width="9.4" height="9.4" fill="#151310"/>
<rect x="210.0" y="202.0" width="9.4" height="9.4" fill="#151310"/>
<rect x="219.0" y="202.0" width="9.4" height="9.4" fill="#211F1C"/>
<rect x="228.0" y="202.0" width="9.4" height="9.4" fill="#494745"/>
<rect x="237.0" y="202.0" width="9.4" height="9.4" fill="#494745"/>
<rect x="246.0" y="202.0" width="9.4" height="9.4" fill="#494745"/>
<rect x="255.0" y="202.0" width="9.4" height="9.4" fill="#494745"/>
<rect x="264.0" y="202.0" width="9.4" height="9.4" fill="#494745"/>
<rect x="273.0" y="202.0" width="9.4" height="9.4" fill="#494745"/>
<rect x="282.0" y="202.0" width="9.4" height="9.4" fill="#494745"/>
<rect x="291.0" y="202.0" width="9.4" height="9.4" fill="#494745"/>
<rect x="300.0" y="202.0" width="9.4" height="9.4" fill="#62615F"/>
<rect x="309.0" y="202.0" width="9.4" height="9.4" fill="#CFCFCE"/>
<rect x="174.0" y="211.0" width="9.4" height="9.4" fill="#C1C1C0"/>
<rect x="183.0" y="211.0" width="9.4" height="9.4" fill="#969594"/>
<rect x="192.0" y="211.0" width="9.4" height="9.4" fill="#BDBCBB"/>
<rect x="201.0" y="211.0" width="9.4" height="9.4" fill="#969594"/>
<rect x="210.0" y="211.0" width="9.4" height="9.4" fill="#696866"/>
<rect x="219.0" y="211.0" width="9.4" height="9.4" fill="#2E2C29"/>
<rect x="228.0" y="211.0" width="9.4" height="9.4" fill="#151310"/>
<rect x="237.0" y="211.0" width="9.4" height="9.4" fill="#302E2B"/>
<rect x="246.0" y="211.0" width="9.4" height="9.4" fill="#151310"/>
<rect x="255.0" y="211.0" width="9.4" height="9.4" fill="#151310"/>
<rect x="264.0" y="211.0" width="9.4" height="9.4" fill="#151310"/>
<rect x="273.0" y="211.0" width="9.4" height="9.4" fill="#191714"/>
<rect x="282.0" y="211.0" width="9.4" height="9.4" fill="#2C2A27"/>
<rect x="291.0" y="211.0" width="9.4" height="9.4" fill="#151310"/>
<rect x="300.0" y="211.0" width="9.4" height="9.4" fill="#151310"/>
<rect x="309.0" y="211.0" width="9.4" height="9.4" fill="#7E7D7B"/>
<rect x="219.0" y="220.0" width="9.4" height="9.4" fill="#EFEFEF"/>
<rect x="228.0" y="220.0" width="9.4" height="9.4" fill="#C2C2C1"/>
<rect x="237.0" y="220.0" width="9.4" height="9.4" fill="#F2F2F2"/>
<rect x="246.0" y="220.0" width="9.4" height="9.4" fill="#C1C1C0"/>
<rect x="255.0" y="220.0" width="9.4" height="9.4" fill="#C1C1C0"/>
<rect x="264.0" y="220.0" width="9.4" height="9.4" fill="#C1C1C0"/>
<rect x="273.0" y="220.0" width="9.4" height="9.4" fill="#C9C8C7"/>
<rect x="282.0" y="220.0" width="9.4" height="9.4" fill="#ECEBEB"/>
<rect x="291.0" y="220.0" width="9.4" height="9.4" fill="#262421"/>
<rect x="300.0" y="220.0" width="9.4" height="9.4" fill="#151310"/>
<rect x="309.0" y="220.0" width="9.4" height="9.4" fill="#9D9C9B"/>
<rect x="282.0" y="229.0" width="9.4" height="9.4" fill="#B3B2B1"/>
<rect x="291.0" y="229.0" width="9.4" height="9.4" fill="#161411"/>
<rect x="300.0" y="229.0" width="9.4" height="9.4" fill="#3E3D3A"/>
<rect x="309.0" y="229.0" width="9.4" height="9.4" fill="#EEEEEE"/>
<rect x="273.0" y="238.0" width="9.4" height="9.4" fill="#EBEBEA"/>
<rect x="282.0" y="238.0" width="9.4" height="9.4" fill="#282624"/>
<rect x="291.0" y="238.0" width="9.4" height="9.4" fill="#14120F"/>
<rect x="300.0" y="238.0" width="9.4" height="9.4" fill="#B3B2B1"/>
<rect x="273.0" y="247.0" width="9.4" height="9.4" fill="#888786"/>
<rect x="282.0" y="247.0" width="9.4" height="9.4" fill="#151310"/>
<rect x="291.0" y="247.0" width="9.4" height="9.4" fill="#24221F"/>
<rect x="300.0" y="247.0" width="9.4" height="9.4" fill="#D6D6D6"/>
<rect x="264.0" y="256.0" width="9.4" height="9.4" fill="#C9C8C7"/>
<rect x="273.0" y="256.0" width="9.4" height="9.4" fill="#1A1815"/>
<rect x="282.0" y="256.0" width="9.4" height="9.4" fill="#151310"/>
<rect x="291.0" y="256.0" width="9.4" height="9.4" fill="#C6C5C5"/>
<rect x="264.0" y="265.0" width="9.4" height="9.4" fill="#848382"/>
<rect x="273.0" y="265.0" width="9.4" height="9.4" fill="#151310"/>
<rect x="282.0" y="265.0" width="9.4" height="9.4" fill="#53514F"/>
<rect x="291.0" y="265.0" width="9.4" height="9.4" fill="#FAFAFA"/>
<rect x="255.0" y="274.0" width="9.4" height="9.4" fill="#F7F7F7"/>
<rect x="264.0" y="274.0" width="9.4" height="9.4" fill="#42403E"/>
<rect x="273.0" y="274.0" width="9.4" height="9.4" fill="#1A1916"/>
<rect x="282.0" y="274.0" width="9.4" height="9.4" fill="#CAC9C8"/>
<rect x="255.0" y="283.0" width="9.4" height="9.4" fill="#8B8A88"/>
<rect x="264.0" y="283.0" width="9.4" height="9.4" fill="#151310"/>
<rect x="273.0" y="283.0" width="9.4" height="9.4" fill="#575654"/>
<rect x="246.0" y="292.0" width="9.4" height="9.4" fill="#BAB9B8"/>
<rect x="255.0" y="292.0" width="9.4" height="9.4" fill="#181613"/>
<rect x="264.0" y="292.0" width="9.4" height="9.4" fill="#22201D"/>
<rect x="273.0" y="292.0" width="9.4" height="9.4" fill="#CACAC9"/>
<rect x="237.0" y="301.0" width="9.4" height="9.4" fill="#EDEDED"/>
<rect x="246.0" y="301.0" width="9.4" height="9.4" fill="#33322F"/>
<rect x="255.0" y="301.0" width="9.4" height="9.4" fill="#151310"/>
<rect x="264.0" y="301.0" width="9.4" height="9.4" fill="#666563"/>
<rect x="228.0" y="310.0" width="9.4" height="9.4" fill="#FCFCFC"/>
<rect x="237.0" y="310.0" width="9.4" height="9.4" fill="#444240"/>
<rect x="246.0" y="310.0" width="9.4" height="9.4" fill="#151310"/>
<rect x="255.0" y="310.0" width="9.4" height="9.4" fill="#353331"/>
<rect x="264.0" y="310.0" width="9.4" height="9.4" fill="#DFDEDE"/>
<rect x="228.0" y="319.0" width="9.4" height="9.4" fill="#DCDCDB"/>
<rect x="237.0" y="319.0" width="9.4" height="9.4" fill="#151310"/>
<rect x="246.0" y="319.0" width="9.4" height="9.4" fill="#151310"/>
<rect x="255.0" y="319.0" width="9.4" height="9.4" fill="#B8B7B7"/>
<rect x="219.0" y="328.0" width="9.4" height="9.4" fill="#E2E2E2"/>
<rect x="228.0" y="328.0" width="9.4" height="9.4" fill="#312F2C"/>
<rect x="237.0" y="328.0" width="9.4" height="9.4" fill="#151310"/>
<rect x="246.0" y="328.0" width="9.4" height="9.4" fill="#959493"/>
<rect x="255.0" y="328.0" width="9.4" height="9.4" fill="#FEFEFE"/>
<rect x="219.0" y="337.0" width="9.4" height="9.4" fill="#848382"/>
<rect x="228.0" y="337.0" width="9.4" height="9.4" fill="#151310"/>
<rect x="237.0" y="337.0" width="9.4" height="9.4" fill="#151310"/>
<rect x="246.0" y="337.0" width="9.4" height="9.4" fill="#CFCFCE"/>
<rect x="210.0" y="346.0" width="9.4" height="9.4" fill="#C7C6C6"/>
<rect x="219.0" y="346.0" width="9.4" height="9.4" fill="#201E1B"/>
<rect x="228.0" y="346.0" width="9.4" height="9.4" fill="#151310"/>
<rect x="237.0" y="346.0" width="9.4" height="9.4" fill="#151310"/>
<rect x="246.0" y="346.0" width="9.4" height="9.4" fill="#CFCFCE"/>
<rect x="210.0" y="355.0" width="9.4" height="9.4" fill="#8F8F8D"/>
<rect x="219.0" y="355.0" width="9.4" height="9.4" fill="#151310"/>
<rect x="228.0" y="355.0" width="9.4" height="9.4" fill="#151310"/>
<rect x="237.0" y="355.0" width="9.4" height="9.4" fill="#353331"/>
<rect x="246.0" y="355.0" width="9.4" height="9.4" fill="#DADAD9"/>
<rect x="210.0" y="364.0" width="9.4" height="9.4" fill="#8F8F8D"/>
<rect x="219.0" y="364.0" width="9.4" height="9.4" fill="#151310"/>
<rect x="228.0" y="364.0" width="9.4" height="9.4" fill="#403F3C"/>
<rect x="237.0" y="364.0" width="9.4" height="9.4" fill="#EEEEEE"/>
<rect x="120.0" y="130.0" width="252.0" height="252.0" fill="none" stroke="#D2CEC8" stroke-width="1.6"/>
<text x="246.0" y="426.0" font-family="system-ui,-apple-system,'Segoe UI',Roboto,Helvetica,Arial,sans-serif" font-size="33" font-weight="400" fill="#7E7972" text-anchor="middle">une image, 28 × 28 pixels</text>
<line x1="406.0" y1="256.0" x2="513.6" y2="256.0" stroke="#7E7972" stroke-width="2.4" data-role="filet"/><polygon points="522.0,256.0 510.9,260.7 510.9,251.3" fill="#7E7972" data-role="filet"/>
<rect x="556.0" y="181.0" width="262.0" height="150.0" fill="none" stroke="#14120F" stroke-width="2.4"/>
<text x="687.0" y="272.0" font-family="system-ui,-apple-system,'Segoe UI',Roboto,Helvetica,Arial,sans-serif" font-size="56" font-weight="700" fill="#14120F" text-anchor="middle">f<tspan font-size="38.1" dy="13.4">θ</tspan><tspan font-size="56" dy="-13.4"></tspan></text>
<line x1="852.0" y1="256.0" x2="959.6" y2="256.0" stroke="#7E7972" stroke-width="2.4" data-role="filet"/><polygon points="968.0,256.0 956.9,260.7 956.9,251.3" fill="#7E7972" data-role="filet"/>
<text x="1118.0" y="314.0" font-family="system-ui,-apple-system,'Segoe UI',Roboto,Helvetica,Arial,sans-serif" font-size="172" font-weight="700" fill="#A8442A" text-anchor="middle">7</text>
<text x="1118.0" y="412.0" font-family="system-ui,-apple-system,'Segoe UI',Roboto,Helvetica,Arial,sans-serif" font-size="33" font-weight="400" fill="#7E7972" text-anchor="middle">le chiffre lu</text>
</svg>
