<svg xmlns="http://www.w3.org/2000/svg" width="1380" height="760" viewBox="0 0 1380 760">
<rect width="1380" height="760" fill="#FFFFFF"/>
<text x="40.0" y="40.0" font-family="system-ui,-apple-system,'Segoe UI',Roboto,Helvetica,Arial,sans-serif" font-size="33" font-weight="600" fill="#7E7972" text-anchor="start">le même 7, décalé de 5 colonnes</text>
<line x1="40.0" y1="54.0" x2="1340.0" y2="54.0" stroke="#D2CEC8" stroke-width="1.5" data-role="filet"/>
<rect x="186.0" y="209.0" width="11.4" height="11.4" fill="#B2B1B0"/>
<rect x="197.0" y="209.0" width="11.4" height="11.4" fill="#555351"/>
<rect x="208.0" y="209.0" width="11.4" height="11.4" fill="#6C6B69"/>
<rect x="219.0" y="209.0" width="11.4" height="11.4" fill="#747371"/>
<rect x="230.0" y="209.0" width="11.4" height="11.4" fill="#C8C7C7"/>
<rect x="241.0" y="209.0" width="11.4" height="11.4" fill="#DEDEDD"/>
<rect x="186.0" y="220.0" width="11.4" height="11.4" fill="#32312E"/>
<rect x="197.0" y="220.0" width="11.4" height="11.4" fill="#151310"/>
<rect x="208.0" y="220.0" width="11.4" height="11.4" fill="#151310"/>
<rect x="219.0" y="220.0" width="11.4" height="11.4" fill="#151310"/>
<rect x="230.0" y="220.0" width="11.4" height="11.4" fill="#151310"/>
<rect x="241.0" y="220.0" width="11.4" height="11.4" fill="#211F1C"/>
<rect x="252.0" y="220.0" width="11.4" height="11.4" fill="#494745"/>
<rect x="263.0" y="220.0" width="11.4" height="11.4" fill="#494745"/>
<rect x="274.0" y="220.0" width="11.4" height="11.4" fill="#494745"/>
<rect x="285.0" y="220.0" width="11.4" height="11.4" fill="#494745"/>
<rect x="296.0" y="220.0" width="11.4" height="11.4" fill="#494745"/>
<rect x="307.0" y="220.0" width="11.4" height="11.4" fill="#494745"/>
<rect x="318.0" y="220.0" width="11.4" height="11.4" fill="#494745"/>
<rect x="329.0" y="220.0" width="11.4" height="11.4" fill="#494745"/>
<rect x="340.0" y="220.0" width="11.4" height="11.4" fill="#62615F"/>
<rect x="351.0" y="220.0" width="11.4" height="11.4" fill="#CFCFCE"/>
<rect x="186.0" y="231.0" width="11.4" height="11.4" fill="#C1C1C0"/>
<rect x="197.0" y="231.0" width="11.4" height="11.4" fill="#969594"/>
<rect x="208.0" y="231.0" width="11.4" height="11.4" fill="#BDBCBB"/>
<rect x="219.0" y="231.0" width="11.4" height="11.4" fill="#969594"/>
<rect x="230.0" y="231.0" width="11.4" height="11.4" fill="#696866"/>
<rect x="241.0" y="231.0" width="11.4" height="11.4" fill="#2E2C29"/>
<rect x="252.0" y="231.0" width="11.4" height="11.4" fill="#151310"/>
<rect x="263.0" y="231.0" width="11.4" height="11.4" fill="#302E2B"/>
<rect x="274.0" y="231.0" width="11.4" height="11.4" fill="#151310"/>
<rect x="285.0" y="231.0" width="11.4" height="11.4" fill="#151310"/>
<rect x="296.0" y="231.0" width="11.4" height="11.4" fill="#151310"/>
<rect x="307.0" y="231.0" width="11.4" height="11.4" fill="#191714"/>
<rect x="318.0" y="231.0" width="11.4" height="11.4" fill="#2C2A27"/>
<rect x="329.0" y="231.0" width="11.4" height="11.4" fill="#151310"/>
<rect x="340.0" y="231.0" width="11.4" height="11.4" fill="#151310"/>
<rect x="351.0" y="231.0" width="11.4" height="11.4" fill="#7E7D7B"/>
<rect x="241.0" y="242.0" width="11.4" height="11.4" fill="#EFEFEF"/>
<rect x="252.0" y="242.0" width="11.4" height="11.4" fill="#C2C2C1"/>
<rect x="263.0" y="242.0" width="11.4" height="11.4" fill="#F2F2F2"/>
<rect x="274.0" y="242.0" width="11.4" height="11.4" fill="#C1C1C0"/>
<rect x="285.0" y="242.0" width="11.4" height="11.4" fill="#C1C1C0"/>
<rect x="296.0" y="242.0" width="11.4" height="11.4" fill="#C1C1C0"/>
<rect x="307.0" y="242.0" width="11.4" height="11.4" fill="#C9C8C7"/>
<rect x="318.0" y="242.0" width="11.4" height="11.4" fill="#ECEBEB"/>
<rect x="329.0" y="242.0" width="11.4" height="11.4" fill="#262421"/>
<rect x="340.0" y="242.0" width="11.4" height="11.4" fill="#151310"/>
<rect x="351.0" y="242.0" width="11.4" height="11.4" fill="#9D9C9B"/>
<rect x="318.0" y="253.0" width="11.4" height="11.4" fill="#B3B2B1"/>
<rect x="329.0" y="253.0" width="11.4" height="11.4" fill="#161411"/>
<rect x="340.0" y="253.0" width="11.4" height="11.4" fill="#3E3D3A"/>
<rect x="351.0" y="253.0" width="11.4" height="11.4" fill="#EEEEEE"/>
<rect x="307.0" y="264.0" width="11.4" height="11.4" fill="#EBEBEA"/>
<rect x="318.0" y="264.0" width="11.4" height="11.4" fill="#282624"/>
<rect x="329.0" y="264.0" width="11.4" height="11.4" fill="#14120F"/>
<rect x="340.0" y="264.0" width="11.4" height="11.4" fill="#B3B2B1"/>
<rect x="307.0" y="275.0" width="11.4" height="11.4" fill="#888786"/>
<rect x="318.0" y="275.0" width="11.4" height="11.4" fill="#151310"/>
<rect x="329.0" y="275.0" width="11.4" height="11.4" fill="#24221F"/>
<rect x="340.0" y="275.0" width="11.4" height="11.4" fill="#D6D6D6"/>
<rect x="296.0" y="286.0" width="11.4" height="11.4" fill="#C9C8C7"/>
<rect x="307.0" y="286.0" width="11.4" height="11.4" fill="#1A1815"/>
<rect x="318.0" y="286.0" width="11.4" height="11.4" fill="#151310"/>
<rect x="329.0" y="286.0" width="11.4" height="11.4" fill="#C6C5C5"/>
<rect x="296.0" y="297.0" width="11.4" height="11.4" fill="#848382"/>
<rect x="307.0" y="297.0" width="11.4" height="11.4" fill="#151310"/>
<rect x="318.0" y="297.0" width="11.4" height="11.4" fill="#53514F"/>
<rect x="329.0" y="297.0" width="11.4" height="11.4" fill="#FAFAFA"/>
<rect x="285.0" y="308.0" width="11.4" height="11.4" fill="#F7F7F7"/>
<rect x="296.0" y="308.0" width="11.4" height="11.4" fill="#42403E"/>
<rect x="307.0" y="308.0" width="11.4" height="11.4" fill="#1A1916"/>
<rect x="318.0" y="308.0" width="11.4" height="11.4" fill="#CAC9C8"/>
<rect x="285.0" y="319.0" width="11.4" height="11.4" fill="#8B8A88"/>
<rect x="296.0" y="319.0" width="11.4" height="11.4" fill="#151310"/>
<rect x="307.0" y="319.0" width="11.4" height="11.4" fill="#575654"/>
<rect x="274.0" y="330.0" width="11.4" height="11.4" fill="#BAB9B8"/>
<rect x="285.0" y="330.0" width="11.4" height="11.4" fill="#181613"/>
<rect x="296.0" y="330.0" width="11.4" height="11.4" fill="#22201D"/>
<rect x="307.0" y="330.0" width="11.4" height="11.4" fill="#CACAC9"/>
<rect x="263.0" y="341.0" width="11.4" height="11.4" fill="#EDEDED"/>
<rect x="274.0" y="341.0" width="11.4" height="11.4" fill="#33322F"/>
<rect x="285.0" y="341.0" width="11.4" height="11.4" fill="#151310"/>
<rect x="296.0" y="341.0" width="11.4" height="11.4" fill="#666563"/>
<rect x="252.0" y="352.0" width="11.4" height="11.4" fill="#FCFCFC"/>
<rect x="263.0" y="352.0" width="11.4" height="11.4" fill="#444240"/>
<rect x="274.0" y="352.0" width="11.4" height="11.4" fill="#151310"/>
<rect x="285.0" y="352.0" width="11.4" height="11.4" fill="#353331"/>
<rect x="296.0" y="352.0" width="11.4" height="11.4" fill="#DFDEDE"/>
<rect x="252.0" y="363.0" width="11.4" height="11.4" fill="#DCDCDB"/>
<rect x="263.0" y="363.0" width="11.4" height="11.4" fill="#151310"/>
<rect x="274.0" y="363.0" width="11.4" height="11.4" fill="#151310"/>
<rect x="285.0" y="363.0" width="11.4" height="11.4" fill="#B8B7B7"/>
<rect x="241.0" y="374.0" width="11.4" height="11.4" fill="#E2E2E2"/>
<rect x="252.0" y="374.0" width="11.4" height="11.4" fill="#312F2C"/>
<rect x="263.0" y="374.0" width="11.4" height="11.4" fill="#151310"/>
<rect x="274.0" y="374.0" width="11.4" height="11.4" fill="#959493"/>
<rect x="285.0" y="374.0" width="11.4" height="11.4" fill="#FEFEFE"/>
<rect x="241.0" y="385.0" width="11.4" height="11.4" fill="#848382"/>
<rect x="252.0" y="385.0" width="11.4" height="11.4" fill="#151310"/>
<rect x="263.0" y="385.0" width="11.4" height="11.4" fill="#151310"/>
<rect x="274.0" y="385.0" width="11.4" height="11.4" fill="#CFCFCE"/>
<rect x="230.0" y="396.0" width="11.4" height="11.4" fill="#C7C6C6"/>
<rect x="241.0" y="396.0" width="11.4" height="11.4" fill="#201E1B"/>
<rect x="252.0" y="396.0" width="11.4" height="11.4" fill="#151310"/>
<rect x="263.0" y="396.0" width="11.4" height="11.4" fill="#151310"/>
<rect x="274.0" y="396.0" width="11.4" height="11.4" fill="#CFCFCE"/>
<rect x="230.0" y="407.0" width="11.4" height="11.4" fill="#8F8F8D"/>
<rect x="241.0" y="407.0" width="11.4" height="11.4" fill="#151310"/>
<rect x="252.0" y="407.0" width="11.4" height="11.4" fill="#151310"/>
<rect x="263.0" y="407.0" width="11.4" height="11.4" fill="#353331"/>
<rect x="274.0" y="407.0" width="11.4" height="11.4" fill="#DADAD9"/>
<rect x="230.0" y="418.0" width="11.4" height="11.4" fill="#8F8F8D"/>
<rect x="241.0" y="418.0" width="11.4" height="11.4" fill="#151310"/>
<rect x="252.0" y="418.0" width="11.4" height="11.4" fill="#403F3C"/>
<rect x="263.0" y="418.0" width="11.4" height="11.4" fill="#EEEEEE"/>
<rect x="120.0" y="132.0" width="308.0" height="308.0" fill="none" stroke="#D2CEC8" stroke-width="1.6"/>
<text x="125.5" y="116.0" font-family="system-ui,-apple-system,'Segoe UI',Roboto,Helvetica,Arial,sans-serif" font-size="33" font-weight="400" fill="#7E7972" text-anchor="middle">1</text>
<text x="102.0" y="148.5" font-family="system-ui,-apple-system,'Segoe UI',Roboto,Helvetica,Arial,sans-serif" font-size="33" font-weight="400" fill="#7E7972" text-anchor="end">1</text>
<text x="422.5" y="116.0" font-family="system-ui,-apple-system,'Segoe UI',Roboto,Helvetica,Arial,sans-serif" font-size="33" font-weight="400" fill="#7E7972" text-anchor="middle">28</text>
<text x="102.0" y="445.5" font-family="system-ui,-apple-system,'Segoe UI',Roboto,Helvetica,Arial,sans-serif" font-size="33" font-weight="400" fill="#7E7972" text-anchor="end">28</text>
<circle cx="191.5" cy="225.5" r="10.45" fill="none" stroke="#A8442A" stroke-width="2.6"/>
<line x1="191.5" y1="215.1" x2="191.5" y2="86.0" stroke="#A8442A" stroke-width="1.4" stroke-dasharray="4 4" data-role="filet"/>
<text x="191.5" y="78.0" font-family="system-ui,-apple-system,'Segoe UI',Roboto,Helvetica,Arial,sans-serif" font-size="33" font-weight="700" fill="#A8442A" text-anchor="middle">w₂₃₁</text>
<text x="274.0" y="484.0" font-family="system-ui,-apple-system,'Segoe UI',Roboto,Helvetica,Arial,sans-serif" font-size="33" font-weight="600" fill="#14120F" text-anchor="middle">l'image de test n°0</text>
<text x="274.0" y="528.5" font-family="system-ui,-apple-system,'Segoe UI',Roboto,Helvetica,Arial,sans-serif" font-size="33" font-weight="400" fill="#7E7972" text-anchor="middle">ligne 9 · colonne 7</text>
<rect x="881.0" y="209.0" width="11.4" height="11.4" fill="#B2B1B0"/>
<rect x="892.0" y="209.0" width="11.4" height="11.4" fill="#555351"/>
<rect x="903.0" y="209.0" width="11.4" height="11.4" fill="#6C6B69"/>
<rect x="914.0" y="209.0" width="11.4" height="11.4" fill="#747371"/>
<rect x="925.0" y="209.0" width="11.4" height="11.4" fill="#C8C7C7"/>
<rect x="936.0" y="209.0" width="11.4" height="11.4" fill="#DEDEDD"/>
<rect x="881.0" y="220.0" width="11.4" height="11.4" fill="#32312E"/>
<rect x="892.0" y="220.0" width="11.4" height="11.4" fill="#151310"/>
<rect x="903.0" y="220.0" width="11.4" height="11.4" fill="#151310"/>
<rect x="914.0" y="220.0" width="11.4" height="11.4" fill="#151310"/>
<rect x="925.0" y="220.0" width="11.4" height="11.4" fill="#151310"/>
<rect x="936.0" y="220.0" width="11.4" height="11.4" fill="#211F1C"/>
<rect x="947.0" y="220.0" width="11.4" height="11.4" fill="#494745"/>
<rect x="958.0" y="220.0" width="11.4" height="11.4" fill="#494745"/>
<rect x="969.0" y="220.0" width="11.4" height="11.4" fill="#494745"/>
<rect x="980.0" y="220.0" width="11.4" height="11.4" fill="#494745"/>
<rect x="991.0" y="220.0" width="11.4" height="11.4" fill="#494745"/>
<rect x="1002.0" y="220.0" width="11.4" height="11.4" fill="#494745"/>
<rect x="1013.0" y="220.0" width="11.4" height="11.4" fill="#494745"/>
<rect x="1024.0" y="220.0" width="11.4" height="11.4" fill="#494745"/>
<rect x="1035.0" y="220.0" width="11.4" height="11.4" fill="#62615F"/>
<rect x="1046.0" y="220.0" width="11.4" height="11.4" fill="#CFCFCE"/>
<rect x="881.0" y="231.0" width="11.4" height="11.4" fill="#C1C1C0"/>
<rect x="892.0" y="231.0" width="11.4" height="11.4" fill="#969594"/>
<rect x="903.0" y="231.0" width="11.4" height="11.4" fill="#BDBCBB"/>
<rect x="914.0" y="231.0" width="11.4" height="11.4" fill="#969594"/>
<rect x="925.0" y="231.0" width="11.4" height="11.4" fill="#696866"/>
<rect x="936.0" y="231.0" width="11.4" height="11.4" fill="#2E2C29"/>
<rect x="947.0" y="231.0" width="11.4" height="11.4" fill="#151310"/>
<rect x="958.0" y="231.0" width="11.4" height="11.4" fill="#302E2B"/>
<rect x="969.0" y="231.0" width="11.4" height="11.4" fill="#151310"/>
<rect x="980.0" y="231.0" width="11.4" height="11.4" fill="#151310"/>
<rect x="991.0" y="231.0" width="11.4" height="11.4" fill="#151310"/>
<rect x="1002.0" y="231.0" width="11.4" height="11.4" fill="#191714"/>
<rect x="1013.0" y="231.0" width="11.4" height="11.4" fill="#2C2A27"/>
<rect x="1024.0" y="231.0" width="11.4" height="11.4" fill="#151310"/>
<rect x="1035.0" y="231.0" width="11.4" height="11.4" fill="#151310"/>
<rect x="1046.0" y="231.0" width="11.4" height="11.4" fill="#7E7D7B"/>
<rect x="936.0" y="242.0" width="11.4" height="11.4" fill="#EFEFEF"/>
<rect x="947.0" y="242.0" width="11.4" height="11.4" fill="#C2C2C1"/>
<rect x="958.0" y="242.0" width="11.4" height="11.4" fill="#F2F2F2"/>
<rect x="969.0" y="242.0" width="11.4" height="11.4" fill="#C1C1C0"/>
<rect x="980.0" y="242.0" width="11.4" height="11.4" fill="#C1C1C0"/>
<rect x="991.0" y="242.0" width="11.4" height="11.4" fill="#C1C1C0"/>
<rect x="1002.0" y="242.0" width="11.4" height="11.4" fill="#C9C8C7"/>
<rect x="1013.0" y="242.0" width="11.4" height="11.4" fill="#ECEBEB"/>
<rect x="1024.0" y="242.0" width="11.4" height="11.4" fill="#262421"/>
<rect x="1035.0" y="242.0" width="11.4" height="11.4" fill="#151310"/>
<rect x="1046.0" y="242.0" width="11.4" height="11.4" fill="#9D9C9B"/>
<rect x="1013.0" y="253.0" width="11.4" height="11.4" fill="#B3B2B1"/>
<rect x="1024.0" y="253.0" width="11.4" height="11.4" fill="#161411"/>
<rect x="1035.0" y="253.0" width="11.4" height="11.4" fill="#3E3D3A"/>
<rect x="1046.0" y="253.0" width="11.4" height="11.4" fill="#EEEEEE"/>
<rect x="1002.0" y="264.0" width="11.4" height="11.4" fill="#EBEBEA"/>
<rect x="1013.0" y="264.0" width="11.4" height="11.4" fill="#282624"/>
<rect x="1024.0" y="264.0" width="11.4" height="11.4" fill="#14120F"/>
<rect x="1035.0" y="264.0" width="11.4" height="11.4" fill="#B3B2B1"/>
<rect x="1002.0" y="275.0" width="11.4" height="11.4" fill="#888786"/>
<rect x="1013.0" y="275.0" width="11.4" height="11.4" fill="#151310"/>
<rect x="1024.0" y="275.0" width="11.4" height="11.4" fill="#24221F"/>
<rect x="1035.0" y="275.0" width="11.4" height="11.4" fill="#D6D6D6"/>
<rect x="991.0" y="286.0" width="11.4" height="11.4" fill="#C9C8C7"/>
<rect x="1002.0" y="286.0" width="11.4" height="11.4" fill="#1A1815"/>
<rect x="1013.0" y="286.0" width="11.4" height="11.4" fill="#151310"/>
<rect x="1024.0" y="286.0" width="11.4" height="11.4" fill="#C6C5C5"/>
<rect x="991.0" y="297.0" width="11.4" height="11.4" fill="#848382"/>
<rect x="1002.0" y="297.0" width="11.4" height="11.4" fill="#151310"/>
<rect x="1013.0" y="297.0" width="11.4" height="11.4" fill="#53514F"/>
<rect x="1024.0" y="297.0" width="11.4" height="11.4" fill="#FAFAFA"/>
<rect x="980.0" y="308.0" width="11.4" height="11.4" fill="#F7F7F7"/>
<rect x="991.0" y="308.0" width="11.4" height="11.4" fill="#42403E"/>
<rect x="1002.0" y="308.0" width="11.4" height="11.4" fill="#1A1916"/>
<rect x="1013.0" y="308.0" width="11.4" height="11.4" fill="#CAC9C8"/>
<rect x="980.0" y="319.0" width="11.4" height="11.4" fill="#8B8A88"/>
<rect x="991.0" y="319.0" width="11.4" height="11.4" fill="#151310"/>
<rect x="1002.0" y="319.0" width="11.4" height="11.4" fill="#575654"/>
<rect x="969.0" y="330.0" width="11.4" height="11.4" fill="#BAB9B8"/>
<rect x="980.0" y="330.0" width="11.4" height="11.4" fill="#181613"/>
<rect x="991.0" y="330.0" width="11.4" height="11.4" fill="#22201D"/>
<rect x="1002.0" y="330.0" width="11.4" height="11.4" fill="#CACAC9"/>
<rect x="958.0" y="341.0" width="11.4" height="11.4" fill="#EDEDED"/>
<rect x="969.0" y="341.0" width="11.4" height="11.4" fill="#33322F"/>
<rect x="980.0" y="341.0" width="11.4" height="11.4" fill="#151310"/>
<rect x="991.0" y="341.0" width="11.4" height="11.4" fill="#666563"/>
<rect x="947.0" y="352.0" width="11.4" height="11.4" fill="#FCFCFC"/>
<rect x="958.0" y="352.0" width="11.4" height="11.4" fill="#444240"/>
<rect x="969.0" y="352.0" width="11.4" height="11.4" fill="#151310"/>
<rect x="980.0" y="352.0" width="11.4" height="11.4" fill="#353331"/>
<rect x="991.0" y="352.0" width="11.4" height="11.4" fill="#DFDEDE"/>
<rect x="947.0" y="363.0" width="11.4" height="11.4" fill="#DCDCDB"/>
<rect x="958.0" y="363.0" width="11.4" height="11.4" fill="#151310"/>
<rect x="969.0" y="363.0" width="11.4" height="11.4" fill="#151310"/>
<rect x="980.0" y="363.0" width="11.4" height="11.4" fill="#B8B7B7"/>
<rect x="936.0" y="374.0" width="11.4" height="11.4" fill="#E2E2E2"/>
<rect x="947.0" y="374.0" width="11.4" height="11.4" fill="#312F2C"/>
<rect x="958.0" y="374.0" width="11.4" height="11.4" fill="#151310"/>
<rect x="969.0" y="374.0" width="11.4" height="11.4" fill="#959493"/>
<rect x="980.0" y="374.0" width="11.4" height="11.4" fill="#FEFEFE"/>
<rect x="936.0" y="385.0" width="11.4" height="11.4" fill="#848382"/>
<rect x="947.0" y="385.0" width="11.4" height="11.4" fill="#151310"/>
<rect x="958.0" y="385.0" width="11.4" height="11.4" fill="#151310"/>
<rect x="969.0" y="385.0" width="11.4" height="11.4" fill="#CFCFCE"/>
<rect x="925.0" y="396.0" width="11.4" height="11.4" fill="#C7C6C6"/>
<rect x="936.0" y="396.0" width="11.4" height="11.4" fill="#201E1B"/>
<rect x="947.0" y="396.0" width="11.4" height="11.4" fill="#151310"/>
<rect x="958.0" y="396.0" width="11.4" height="11.4" fill="#151310"/>
<rect x="969.0" y="396.0" width="11.4" height="11.4" fill="#CFCFCE"/>
<rect x="925.0" y="407.0" width="11.4" height="11.4" fill="#8F8F8D"/>
<rect x="936.0" y="407.0" width="11.4" height="11.4" fill="#151310"/>
<rect x="947.0" y="407.0" width="11.4" height="11.4" fill="#151310"/>
<rect x="958.0" y="407.0" width="11.4" height="11.4" fill="#353331"/>
<rect x="969.0" y="407.0" width="11.4" height="11.4" fill="#DADAD9"/>
<rect x="925.0" y="418.0" width="11.4" height="11.4" fill="#8F8F8D"/>
<rect x="936.0" y="418.0" width="11.4" height="11.4" fill="#151310"/>
<rect x="947.0" y="418.0" width="11.4" height="11.4" fill="#403F3C"/>
<rect x="958.0" y="418.0" width="11.4" height="11.4" fill="#EEEEEE"/>
<rect x="760.0" y="132.0" width="308.0" height="308.0" fill="none" stroke="#D2CEC8" stroke-width="1.6"/>
<text x="765.5" y="116.0" font-family="system-ui,-apple-system,'Segoe UI',Roboto,Helvetica,Arial,sans-serif" font-size="33" font-weight="400" fill="#7E7972" text-anchor="middle">1</text>
<text x="742.0" y="148.5" font-family="system-ui,-apple-system,'Segoe UI',Roboto,Helvetica,Arial,sans-serif" font-size="33" font-weight="400" fill="#7E7972" text-anchor="end">1</text>
<text x="1062.5" y="116.0" font-family="system-ui,-apple-system,'Segoe UI',Roboto,Helvetica,Arial,sans-serif" font-size="33" font-weight="400" fill="#7E7972" text-anchor="middle">28</text>
<text x="742.0" y="445.5" font-family="system-ui,-apple-system,'Segoe UI',Roboto,Helvetica,Arial,sans-serif" font-size="33" font-weight="400" fill="#7E7972" text-anchor="end">28</text>
<circle cx="886.5" cy="225.5" r="10.45" fill="none" stroke="#A8442A" stroke-width="2.6"/>
<line x1="886.5" y1="215.1" x2="886.5" y2="86.0" stroke="#A8442A" stroke-width="1.4" stroke-dasharray="4 4" data-role="filet"/>
<text x="886.5" y="78.0" font-family="system-ui,-apple-system,'Segoe UI',Roboto,Helvetica,Arial,sans-serif" font-size="33" font-weight="700" fill="#A8442A" text-anchor="middle">w₂₃₆</text>
<text x="914.0" y="484.0" font-family="system-ui,-apple-system,'Segoe UI',Roboto,Helvetica,Arial,sans-serif" font-size="33" font-weight="600" fill="#14120F" text-anchor="middle">la même image, décalée de 5 colonnes</text>
<text x="914.0" y="528.5" font-family="system-ui,-apple-system,'Segoe UI',Roboto,Helvetica,Arial,sans-serif" font-size="33" font-weight="400" fill="#7E7972" text-anchor="middle">ligne 9 · colonne 12</text>
<line x1="56.0" y1="686.0" x2="1324.0" y2="686.0" stroke="#D2CEC8" stroke-width="1.5" data-role="filet"/>
</svg>
